<svg width="99" height="30" viewBox="0 0 99 30" fill="none" xmlns="http://www.w3.org/2000/svg">
<path fill-rule="evenodd" clip-rule="evenodd" d="M9.71739 0.960449C2.11872 3.85009 -1.80321 12.7456 0.960325 20.2825L14.9716 6.27118L9.71739 0.960449Z" fill="#5F646D"/>
<path opacity="0.5" fill-rule="evenodd" clip-rule="evenodd" d="M9.66089 0.960392L23.7287 14.9717L28.9829 9.66096C26.0283 2.00088 17.3288 -1.85118 9.66089 0.960392Z" fill="#5F646D"/>
<path opacity="0.5" fill-rule="evenodd" clip-rule="evenodd" d="M6.27118 14.9717L0.960449 20.2824C3.87713 27.9522 12.7672 31.7593 20.339 28.983L6.27118 14.9717Z" fill="#5F646D"/>
<path fill-rule="evenodd" clip-rule="evenodd" d="M28.9832 9.71753L14.9719 23.7288L20.2827 29.0396C27.7456 26.0964 32.0195 17.3082 28.9832 9.71753Z" fill="#5F646D"/>
<g clip-path="url(#clip0_396_727)">
<path d="M89.2278 21.8999V12.2093H91.776V13.0091C92.5076 12.3519 93.4128 12.0233 94.4916 12.0233C95.248 12.0233 95.9114 12.1907 96.4818 12.5255C97.0646 12.8479 97.5172 13.3005 97.8396 13.8833C98.162 14.4537 98.3232 15.1233 98.3232 15.8921V21.8999H95.775V16.2641C95.775 15.6317 95.5952 15.1357 95.2356 14.7761C94.876 14.4041 94.3862 14.2181 93.7662 14.2181C93.3322 14.2181 92.9478 14.3049 92.613 14.4785C92.2782 14.6397 91.9992 14.8753 91.776 15.1853V21.8999H89.2278Z" fill="#5F646D"/>
<path d="M82.4395 25.8803C81.6955 25.8803 80.9763 25.7997 80.2819 25.6385C79.5875 25.4897 78.9613 25.2727 78.4033 24.9875L79.2961 23.0159C79.8293 23.2763 80.3501 23.4685 80.8585 23.5925C81.3669 23.7165 81.8753 23.7785 82.3837 23.7785C83.1401 23.7785 83.7105 23.6173 84.0949 23.2949C84.4917 22.9725 84.6901 22.4889 84.6901 21.8441V21.0815C83.8965 21.6643 83.0099 21.9557 82.0303 21.9557C81.1127 21.9557 80.2819 21.7387 79.5379 21.3047C78.8063 20.8583 78.2173 20.2569 77.7709 19.5005C77.3369 18.7441 77.1199 17.9071 77.1199 16.9895C77.1199 16.0719 77.3369 15.2411 77.7709 14.4971C78.2173 13.7531 78.8187 13.1641 79.5751 12.7301C80.3315 12.2837 81.1747 12.0605 82.1047 12.0605C82.5759 12.0605 83.0347 12.1287 83.4811 12.2651C83.9275 12.4015 84.3429 12.5937 84.7273 12.8417V12.2093H87.2383V21.8813C87.2383 23.1585 86.8229 24.1443 85.9921 24.8387C85.1737 25.5331 83.9895 25.8803 82.4395 25.8803ZM82.4209 19.7981C82.8921 19.7981 83.3199 19.7237 83.7043 19.5749C84.0887 19.4137 84.4173 19.1905 84.6901 18.9053V15.1109C84.4173 14.8381 84.0825 14.6273 83.6857 14.4785C83.3013 14.3173 82.8859 14.2367 82.4395 14.2367C81.9063 14.2367 81.4289 14.3607 81.0073 14.6087C80.5857 14.8443 80.2509 15.1729 80.0029 15.5945C79.7549 16.0037 79.6309 16.4687 79.6309 16.9895C79.6309 17.5227 79.7487 18.0001 79.9843 18.4217C80.2323 18.8433 80.5671 19.1781 80.9887 19.4261C81.4227 19.6741 81.9001 19.7981 82.4209 19.7981Z" fill="#5F646D"/>
<path d="M73.0254 21.8999V12.2093H75.5736V21.8999H73.0254ZM74.2902 11.0561C73.8934 11.0561 73.5524 10.9135 73.2672 10.6283C72.982 10.3431 72.8394 10.0021 72.8394 9.60534C72.8394 9.19614 72.982 8.85514 73.2672 8.58234C73.5524 8.29714 73.8934 8.15454 74.2902 8.15454C74.6994 8.15454 75.0404 8.29714 75.3132 8.58234C75.5984 8.85514 75.741 9.19614 75.741 9.60534C75.741 10.0021 75.5984 10.3431 75.3132 10.6283C75.0404 10.9135 74.6994 11.0561 74.2902 11.0561Z" fill="#5F646D"/>
<path d="M61.6665 21.9L65.3865 16.971L61.7595 12.2094H64.7169L66.8559 15.0924L68.9763 12.2094H71.8407L68.2695 16.9338L72.0639 21.9H69.0879L66.8001 18.8124L64.5123 21.9H61.6665Z" fill="#5F646D"/>
<path d="M57.2792 22.086C56.312 22.086 55.4316 21.8628 54.638 21.4164C53.8568 20.97 53.2368 20.3686 52.778 19.6122C52.3192 18.8558 52.0898 18.0064 52.0898 17.064C52.0898 16.1216 52.3068 15.2722 52.7408 14.5158C53.1872 13.7594 53.7886 13.158 54.545 12.7116C55.3014 12.2652 56.1446 12.042 57.0746 12.042C58.0046 12.042 58.8292 12.2714 59.5484 12.7302C60.2676 13.189 60.8318 13.809 61.241 14.5902C61.6626 15.3714 61.8734 16.258 61.8734 17.25V17.9196H54.6938C54.8054 18.304 54.9852 18.6512 55.2332 18.9612C55.4936 19.2712 55.8098 19.513 56.1818 19.6866C56.5662 19.8602 56.9754 19.947 57.4094 19.947C57.8434 19.947 58.2402 19.8788 58.5998 19.7424C58.9718 19.606 59.288 19.4138 59.5484 19.1658L61.2224 20.691C60.6272 21.1746 60.0134 21.528 59.381 21.7512C58.761 21.9744 58.0604 22.086 57.2792 22.086ZM54.6566 16.0968H59.3624C59.2756 15.7124 59.1144 15.3776 58.8788 15.0924C58.6556 14.7948 58.3828 14.5654 58.0604 14.4042C57.7504 14.2306 57.4032 14.1438 57.0188 14.1438C56.622 14.1438 56.2624 14.2244 55.94 14.3856C55.6176 14.5468 55.3448 14.7762 55.1216 15.0738C54.9108 15.359 54.7558 15.7 54.6566 16.0968Z" fill="#5F646D"/>
<path d="M41.6687 19.5005H43.9379C44.5207 19.5005 45.0601 19.4013 45.5561 19.2029C46.0645 18.9921 46.5047 18.7007 46.8767 18.3287C47.2611 17.9567 47.5525 17.5227 47.7509 17.0267C47.9617 16.5307 48.0671 15.9913 48.0671 15.4085C48.0671 14.8257 47.9617 14.2863 47.7509 13.7903C47.5401 13.2819 47.2487 12.8417 46.8767 12.4697C46.5047 12.0977 46.0645 11.8063 45.5561 11.5955C45.0601 11.3847 44.5207 11.2793 43.9379 11.2793H41.6687V19.5005ZM38.9717 21.8999V8.87988H43.9751C44.9547 8.87988 45.8599 9.04728 46.6907 9.38208C47.5215 9.70448 48.2469 10.1633 48.8669 10.7585C49.4869 11.3537 49.9705 12.0481 50.3177 12.8417C50.6773 13.6353 50.8571 14.4909 50.8571 15.4085C50.8571 16.3385 50.6835 17.1941 50.3363 17.9753C49.9891 18.7565 49.4993 19.4447 48.8669 20.0399C48.2469 20.6227 47.5215 21.0815 46.6907 21.4163C45.8599 21.7387 44.9547 21.8999 43.9751 21.8999H38.9717Z" fill="#5F646D"/>
<path d="M97.6526 9.8373V9.97881C97.6526 10.2058 97.6218 10.4095 97.5603 10.5899C97.4988 10.7704 97.412 10.9242 97.2999 11.0514C97.1877 11.1771 97.0538 11.2735 96.8979 11.3405C96.7434 11.4075 96.5718 11.441 96.3832 11.441C96.1958 11.441 96.0243 11.4075 95.8684 11.3405C95.7139 11.2735 95.5799 11.1771 95.4665 11.0514C95.353 10.9242 95.2648 10.7704 95.2019 10.5899C95.1404 10.4095 95.1096 10.2058 95.1096 9.97881V9.8373C95.1096 9.60898 95.1404 9.40527 95.2019 9.22617C95.2634 9.0457 95.3502 8.89189 95.4624 8.76475C95.5758 8.6376 95.7098 8.54053 95.8643 8.47354C96.0202 8.40654 96.1917 8.37305 96.3791 8.37305C96.5677 8.37305 96.7393 8.40654 96.8938 8.47354C97.0497 8.54053 97.1836 8.6376 97.2958 8.76475C97.4092 8.89189 97.4967 9.0457 97.5583 9.22617C97.6211 9.40527 97.6526 9.60898 97.6526 9.8373ZM97.0312 9.97881V9.8332C97.0312 9.67461 97.0168 9.53516 96.9881 9.41484C96.9594 9.29453 96.917 9.19336 96.861 9.11133C96.8049 9.0293 96.7366 8.96777 96.6559 8.92676C96.5752 8.88438 96.483 8.86318 96.3791 8.86318C96.2751 8.86318 96.1829 8.88438 96.1022 8.92676C96.0229 8.96777 95.9552 9.0293 95.8992 9.11133C95.8445 9.19336 95.8028 9.29453 95.7741 9.41484C95.7454 9.53516 95.731 9.67461 95.731 9.8332V9.97881C95.731 10.136 95.7454 10.2755 95.7741 10.3972C95.8028 10.5175 95.8452 10.6193 95.9012 10.7027C95.9573 10.7848 96.0256 10.847 96.1063 10.8894C96.187 10.9317 96.2792 10.9529 96.3832 10.9529C96.4871 10.9529 96.5793 10.9317 96.66 10.8894C96.7407 10.847 96.8083 10.7848 96.863 10.7027C96.9177 10.6193 96.9594 10.5175 96.9881 10.3972C97.0168 10.2755 97.0312 10.136 97.0312 9.97881Z" fill="#5F646D"/>
<path d="M93.7416 8.41406V11.4H93.1284V8.41406H93.7416Z" fill="#5F646D"/>
<path d="M90.3903 11.4H89.7402L89.7443 10.9201H90.3903C90.5517 10.9201 90.6877 10.8839 90.7984 10.8114C90.9092 10.7376 90.9926 10.6303 91.0486 10.4895C91.1061 10.3486 91.1348 10.1784 91.1348 9.97881V9.8332C91.1348 9.68008 91.1184 9.54541 91.0855 9.4292C91.0541 9.31299 91.0069 9.21523 90.944 9.13594C90.8812 9.05664 90.8039 8.99717 90.7123 8.95752C90.6207 8.9165 90.5154 8.896 90.3965 8.896H89.7279V8.41406H90.3965C90.5961 8.41406 90.7786 8.44824 90.944 8.5166C91.1108 8.58359 91.2551 8.67998 91.3768 8.80576C91.4984 8.93154 91.5921 9.08193 91.6577 9.25693C91.7247 9.43057 91.7582 9.62402 91.7582 9.8373V9.97881C91.7582 10.1907 91.7247 10.3842 91.6577 10.5592C91.5921 10.7342 91.4984 10.8846 91.3768 11.0104C91.2564 11.1348 91.1122 11.2312 90.944 11.2995C90.7772 11.3665 90.5927 11.4 90.3903 11.4ZM90.0889 8.41406V11.4H89.4736V8.41406H90.0889Z" fill="#5F646D"/>
<path d="M87.4719 8.41406H88.0851V10.3869C88.0851 10.6166 88.0358 10.8101 87.9374 10.9673C87.8403 11.1245 87.7057 11.2428 87.5334 11.3221C87.3625 11.4014 87.1656 11.441 86.9428 11.441C86.7199 11.441 86.5217 11.4014 86.348 11.3221C86.1758 11.2428 86.0404 11.1245 85.942 10.9673C85.8449 10.8101 85.7964 10.6166 85.7964 10.3869V8.41406H86.4116V10.3869C86.4116 10.5209 86.4328 10.6303 86.4752 10.715C86.5176 10.7998 86.5784 10.862 86.6577 10.9017C86.7384 10.9413 86.8334 10.9611 86.9428 10.9611C87.0549 10.9611 87.1499 10.9413 87.2278 10.9017C87.3071 10.862 87.3673 10.7998 87.4083 10.715C87.4507 10.6303 87.4719 10.5209 87.4719 10.3869V8.41406Z" fill="#5F646D"/>
<path d="M83.6716 8.41406V11.4H83.0584V8.41406H83.6716ZM84.5904 8.41406V8.896H82.1541V8.41406H84.5904Z" fill="#5F646D"/>
<path d="M80.421 10.6187C80.421 10.5653 80.4128 10.5175 80.3964 10.4751C80.3814 10.4313 80.3527 10.3917 80.3103 10.3562C80.2679 10.3192 80.2084 10.283 80.1319 10.2475C80.0553 10.2119 79.9562 10.175 79.8345 10.1367C79.6992 10.093 79.5707 10.0438 79.449 9.98906C79.3287 9.93438 79.222 9.8708 79.1291 9.79834C79.0375 9.72451 78.965 9.63906 78.9117 9.54199C78.8597 9.44492 78.8337 9.33213 78.8337 9.20361C78.8337 9.0792 78.8611 8.96641 78.9158 8.86523C78.9705 8.7627 79.047 8.6752 79.1455 8.60273C79.2439 8.52891 79.3601 8.47217 79.4941 8.43252C79.6294 8.39287 79.7778 8.37305 79.9391 8.37305C80.1592 8.37305 80.3513 8.4127 80.5154 8.49199C80.6794 8.57129 80.8066 8.67998 80.8968 8.81807C80.9884 8.95615 81.0342 9.11406 81.0342 9.2918H80.4231C80.4231 9.2043 80.4046 9.12773 80.3677 9.06211C80.3322 8.99512 80.2775 8.94248 80.2037 8.9042C80.1312 8.86592 80.0396 8.84678 79.9289 8.84678C79.8222 8.84678 79.7333 8.86318 79.6623 8.896C79.5912 8.92744 79.5378 8.97051 79.5023 9.0252C79.4667 9.07852 79.449 9.13867 79.449 9.20566C79.449 9.25625 79.4613 9.30205 79.4859 9.34307C79.5119 9.38408 79.5501 9.42236 79.6007 9.45791C79.6513 9.49346 79.7135 9.52695 79.7874 9.5584C79.8612 9.58984 79.9466 9.62061 80.0437 9.65068C80.2064 9.6999 80.3493 9.75527 80.4723 9.8168C80.5967 9.87832 80.7006 9.94736 80.784 10.0239C80.8674 10.1005 80.9303 10.1873 80.9727 10.2844C81.0151 10.3814 81.0363 10.4915 81.0363 10.6146C81.0363 10.7444 81.011 10.8606 80.9604 10.9632C80.9098 11.0657 80.8367 11.1525 80.741 11.2236C80.6453 11.2947 80.5311 11.3487 80.3985 11.3856C80.2659 11.4226 80.1175 11.441 79.9535 11.441C79.8058 11.441 79.6602 11.4219 79.5167 11.3836C79.3731 11.3439 79.2425 11.2845 79.125 11.2052C79.0087 11.1259 78.9158 11.0247 78.846 10.9017C78.7763 10.7786 78.7415 10.633 78.7415 10.4648H79.3587C79.3587 10.5578 79.3731 10.6364 79.4018 10.7007C79.4305 10.7649 79.4708 10.8169 79.5228 10.8565C79.5761 10.8962 79.639 10.9249 79.7115 10.9427C79.7853 10.9604 79.866 10.9693 79.9535 10.9693C80.0601 10.9693 80.1476 10.9543 80.216 10.9242C80.2857 10.8941 80.337 10.8524 80.3698 10.7991C80.404 10.7458 80.421 10.6856 80.421 10.6187Z" fill="#5F646D"/>
</g>
<defs>
<clipPath id="clip0_396_727">
<rect width="59.4" height="30" fill="white" transform="translate(39)"/>
</clipPath>
</defs>
</svg>
