<svg width="82" height="20" viewBox="0 0 82 20" fill="none" xmlns="http://www.w3.org/2000/svg">
<path d="M7.76074 18.1141V1.28835C7.76074 0.579754 8.19513 0 8.7357 0C9.2666 0 9.70099 0.579754 9.70099 1.28835V18.1141C9.70099 18.8227 9.2666 19.4025 8.7357 19.4025C8.19513 19.4025 7.76074 18.8227 7.76074 18.1141Z" fill="#B0B5BE"/>
<path d="M3.88037 14.0747V5.3404C3.88037 4.53494 4.31475 3.88049 4.84567 3.88049C5.38624 3.88049 5.82062 4.53494 5.82062 5.3404V14.0747C5.82062 14.8801 5.38624 15.522 4.84567 15.522C4.31475 15.522 3.88037 14.8801 3.88037 14.0747Z" fill="#B0B5BE"/>
<path d="M0 11.3929V8.96761C0 8.30396 0.436558 7.76099 0.970127 7.76099C1.5037 7.76099 1.94025 8.30396 1.94025 8.96761V11.3929C1.94025 12.0686 1.5037 12.6116 0.970127 12.6116C0.436558 12.6116 0 12.0686 0 11.3929Z" fill="#B0B5BE"/>
<path d="M14.5518 12.6116H15.8618V3.85069H14.5518V12.6116ZM14.5518 0.970093V2.20804H15.8618V0.970093H14.5518ZM25.1959 3.85069H17.6757V12.6116H18.9858V5.6719C18.9858 5.36242 19.2755 5.08865 19.6282 5.08865H25.1959C25.536 5.08865 25.8257 5.36242 25.8257 5.6719V12.6116H27.1357V5.6719C27.1357 4.66013 26.2666 3.85069 25.1959 3.85069ZM38.5231 3.85069L34.1773 11.4093L29.8188 3.85069H28.282C29.9826 6.77892 31.7083 9.67144 33.4089 12.6116H34.9205L40.06 3.85069H38.5231ZM48.9278 3.85069H41.4202V5.08865H48.9278C49.2807 5.08865 49.5576 5.36242 49.5576 5.6719V7.61215H41.4202V10.7903C41.4202 11.8021 42.2895 12.6116 43.3601 12.6116H50.8805V5.6719C50.8805 4.66013 50.0111 3.85069 48.9278 3.85069ZM49.5576 11.3736H43.3601C43.02 11.3736 42.7303 11.0998 42.7303 10.7903V8.85011H49.5576V11.3736ZM52.3668 0.970093V10.7903C52.3668 11.8021 53.2359 12.6116 54.3067 12.6116H55.8685V11.3736H54.3067C53.9666 11.3736 53.6769 11.0998 53.6769 10.7903V0.970093H52.3668ZM64.447 3.85069H58.8793C57.8084 3.85069 56.9519 4.66013 56.9519 5.6719V10.7903C56.9519 11.8021 57.8084 12.6116 58.8793 12.6116H66.3994V11.3736H58.8793C58.5516 11.3736 58.2619 11.0998 58.2619 10.7903V8.85011H66.3994V5.6719C66.3994 4.66013 65.5428 3.85069 64.447 3.85069ZM58.2619 7.61215V5.6719C58.2619 5.36242 58.5516 5.08865 58.8793 5.08865H64.447C64.7996 5.08865 65.0768 5.36242 65.0768 5.6719V7.61215H58.2619ZM69.8886 3.85069C68.818 3.85069 67.9614 4.66013 67.9614 5.6719V12.6116H69.2715V5.6719C69.2715 5.36242 69.5612 5.08865 69.8886 5.08865H75.1037V3.85069H69.8886ZM81.4902 5.08865V3.85069H77.4843V0.970093H76.1618V10.7903C76.1618 11.8021 77.0183 12.6116 78.1017 12.6116H81.4902V11.3736H78.1017C77.7615 11.3736 77.4843 11.0998 77.4843 10.7903V5.08865H81.4902Z" fill="#B0B5BE"/>
<path d="M14.5518 19.4025H15.131V16.484H14.5518V19.4025ZM14.5518 15.522V15.9327H15.131V15.522H14.5518ZM19.173 16.484H15.9117V19.4025H16.4783V17.0893C16.4783 16.9812 16.6042 16.8947 16.7553 16.8947H19.173C19.3115 16.8947 19.4374 16.9812 19.4374 17.0893V19.4025H20.0041V17.0893C20.0041 16.7542 19.6389 16.484 19.173 16.484ZM24.9401 16.484L23.0639 19.0025L21.1751 16.484H20.5077C21.238 17.4568 21.9936 18.4188 22.7239 19.4025H23.3787L25.6074 16.484H24.9401ZM29.234 16.484H26.8289C26.3629 16.484 25.9852 16.7542 25.9852 17.0893V18.7972C25.9852 19.1322 26.3629 19.4025 26.8289 19.4025H30.0775V18.9917H26.8289C26.6778 18.9917 26.5518 18.8944 26.5518 18.7972V18.1486H30.0775V17.0893C30.0775 16.7542 29.7123 16.484 29.234 16.484ZM26.5518 17.7378V17.0893C26.5518 16.9812 26.6778 16.8947 26.8289 16.8947H29.234C29.385 16.8947 29.5108 16.9812 29.5108 17.0893V17.7378H26.5518ZM34.8625 17.0893C34.8625 16.7542 34.4848 16.484 34.0188 16.484H31.6013C31.1352 16.484 30.7575 16.7542 30.7575 17.0893V17.5433C30.7575 17.8784 31.1352 18.1486 31.6013 18.1486H34.0188C34.1573 18.1486 34.2834 18.2351 34.2834 18.3432V18.7972C34.2834 18.8944 34.1573 18.9917 34.0188 18.9917H31.6013C31.45 18.9917 31.3242 18.8944 31.3242 18.7972V18.7539H30.7575V18.7972C30.7575 19.1322 31.1352 19.4025 31.6013 19.4025H34.0188C34.4848 19.4025 34.8625 19.1322 34.8625 18.7972V18.3432C34.8625 18.0081 34.4848 17.7378 34.0188 17.7378H31.6013C31.45 17.7378 31.3242 17.6406 31.3242 17.5433V17.0893C31.3242 16.9812 31.45 16.8947 31.6013 16.8947H34.0188C34.1573 16.8947 34.2834 16.9812 34.2834 17.0893V17.1325H34.8625V17.0893ZM37.8594 16.8947V16.484H36.1217V15.522H35.555V18.7972C35.555 19.1322 35.9202 19.4025 36.3861 19.4025H37.8594V18.9917H36.3861C36.2475 18.9917 36.1217 18.8944 36.1217 18.7972V16.8947H37.8594ZM43.7146 16.484H38.4009V19.4025H38.98V17.0893C38.98 16.9812 39.1058 16.8947 39.2444 16.8947H40.9317C41.0702 16.8947 41.1963 16.9812 41.1963 17.0893V19.4025H41.7755V17.0893C41.7755 16.9812 41.8888 16.8947 42.0398 16.8947H43.7146C43.8656 16.8947 43.9917 16.9812 43.9917 17.0893V19.4025H44.5581V17.0893C44.5581 16.7542 44.1804 16.484 43.7146 16.484ZM48.4113 16.484H46.0063C45.5405 16.484 45.1628 16.7542 45.1628 17.0893V18.7972C45.1628 19.1322 45.5405 19.4025 46.0063 19.4025H49.2675V18.9917H46.0063C45.8553 18.9917 45.7294 18.8944 45.7294 18.7972V18.1486H49.2675V17.0893C49.2675 16.7542 48.8898 16.484 48.4113 16.484ZM45.7294 17.7378V17.0893C45.7294 16.9812 45.8553 16.8947 46.0063 16.8947H48.4113C48.5626 16.8947 48.6884 16.9812 48.6884 17.0893V17.7378H45.7294ZM53.2467 16.484H49.9855V19.4025H50.5519V17.0893C50.5519 16.9812 50.678 16.8947 50.829 16.8947H53.2467C53.3853 16.8947 53.5111 16.9812 53.5111 17.0893V19.4025H54.0777V17.0893C54.0777 16.7542 53.7125 16.484 53.2467 16.484ZM57.1123 16.8947V16.484H55.3746V15.522H54.8082V18.7972C54.8082 19.1322 55.1731 19.4025 55.6392 19.4025H57.1123V18.9917H55.6392C55.5007 18.9917 55.3746 18.8944 55.3746 18.7972V16.8947H57.1123ZM62.7788 16.484H59.53V16.8947H62.7788C62.9298 16.8947 63.0432 16.9812 63.0432 17.0893V17.7378H59.53V18.7972C59.53 19.1322 59.8953 19.4025 60.3611 19.4025H63.6223V17.0893C63.6223 16.7542 63.2446 16.484 62.7788 16.484ZM63.0432 18.9917H60.3611C60.2225 18.9917 60.0967 18.8944 60.0967 18.7972V18.1486H63.0432V18.9917ZM64.2646 15.522V18.7972C64.2646 19.1322 64.6423 19.4025 65.1081 19.4025H65.7882V18.9917H65.1081C64.9571 18.9917 64.8313 18.8944 64.8313 18.7972V15.522H64.2646ZM69.5027 16.484H67.0853C66.6192 16.484 66.2542 16.7542 66.2542 17.0893V18.7972C66.2542 19.1322 66.6192 19.4025 67.0853 19.4025H70.3465V18.9917H67.0853C66.9467 18.9917 66.8206 18.8944 66.8206 18.7972V18.1486H70.3465V17.0893C70.3465 16.7542 69.9688 16.484 69.5027 16.484ZM66.8206 17.7378V17.0893C66.8206 16.9812 66.9467 16.8947 67.0853 16.8947H69.5027C69.654 16.8947 69.7674 16.9812 69.7674 17.0893V17.7378H66.8206ZM71.8576 16.484C71.3917 16.484 71.0265 16.7542 71.0265 17.0893V19.4025H71.5932V17.0893C71.5932 16.9812 71.719 16.8947 71.8576 16.8947H74.124V16.484H71.8576ZM76.8817 16.8947V16.484H75.144V15.522H74.5773V18.7972C74.5773 19.1322 74.9425 19.4025 75.4211 19.4025H76.8817V18.9917H75.4211C75.2698 18.9917 75.144 18.8944 75.144 18.7972V16.8947H76.8817ZM81.4902 17.0893C81.4902 16.7542 81.1125 16.484 80.634 16.484H78.229C77.7632 16.484 77.3855 16.7542 77.3855 17.0893V17.5433C77.3855 17.8784 77.7632 18.1486 78.229 18.1486H80.634C80.7853 18.1486 80.9111 18.2351 80.9111 18.3432V18.7972C80.9111 18.8944 80.7853 18.9917 80.634 18.9917H78.229C78.078 18.9917 77.9519 18.8944 77.9519 18.7972V18.7539H77.3855V18.7972C77.3855 19.1322 77.7632 19.4025 78.229 19.4025H80.634C81.1125 19.4025 81.4902 19.1322 81.4902 18.7972V18.3432C81.4902 18.0081 81.1125 17.7378 80.634 17.7378H78.229C78.078 17.7378 77.9519 17.6406 77.9519 17.5433V17.0893C77.9519 16.9812 78.078 16.8947 78.229 16.8947H80.634C80.7853 16.8947 80.9111 16.9812 80.9111 17.0893V17.1325H81.4902V17.0893Z" fill="#B0B5BE"/>
</svg>
