<svg width="88" height="31" viewBox="0 0 88 31" fill="none" xmlns="http://www.w3.org/2000/svg">
<path d="M64.8225 29.1579C64.8619 29.3961 64.8301 29.5707 64.7275 29.6819C64.6243 29.7851 64.4885 29.8605 64.3228 29.9081C64.1558 29.9479 63.9769 29.9677 63.7861 29.9677C63.6041 29.9598 63.4496 29.9598 63.3227 29.9677C63.1719 29.9757 62.993 29.9876 62.7866 30.0035C62.5802 30.0114 62.3779 30.0153 62.1792 30.0153C61.9894 30.0153 61.8144 29.9994 61.6556 29.9677C61.4968 29.936 61.3897 29.8804 61.3343 29.801C61.2944 29.7454 61.267 29.6183 61.2508 29.4199C61.2427 29.2214 61.239 28.9792 61.239 28.6933C61.239 28.3995 61.2427 28.074 61.2508 27.7167C61.267 27.3594 61.2825 26.9982 61.2988 26.633C61.3143 26.2598 61.3261 25.8985 61.3343 25.5492C61.3505 25.1998 61.3579 24.8823 61.3579 24.5963C61.366 24.1755 61.3697 23.7587 61.3697 23.3458C61.3697 22.933 61.386 22.5161 61.4177 22.0953C61.4177 22.0397 61.4177 21.9682 61.4177 21.8809C61.4177 21.7857 61.4258 21.6943 61.4414 21.607C61.465 21.5196 61.5049 21.4443 61.5603 21.3807C61.6164 21.3172 61.7036 21.2854 61.8225 21.2854C62.0522 21.2854 62.2235 21.337 62.3343 21.4403C62.4532 21.5435 62.4968 21.7658 62.4651 22.1072C62.4496 22.2739 62.4333 22.4129 62.4178 22.524C62.4097 22.6352 62.4015 22.7345 62.3941 22.8218C62.3941 22.9012 62.3897 22.9766 62.3816 23.048C62.3742 23.1195 62.3698 23.2069 62.3698 23.3101C62.3543 24.0485 62.3462 24.7829 62.3462 25.5134C62.3462 26.2439 62.3262 26.9783 62.2863 27.7167C62.2708 28.1138 62.3425 28.3877 62.5013 28.5385C62.6603 28.6814 62.9255 28.7371 63.2989 28.7053C63.4177 28.6973 63.5641 28.6814 63.7392 28.6577C63.9137 28.6338 64.0801 28.6298 64.239 28.6457C64.3978 28.6616 64.5323 28.7053 64.6437 28.7767C64.755 28.8481 64.8144 28.9752 64.8225 29.1579Z" fill="#B0B5BE"/>
<path d="M59.6021 24.1796C59.6338 24.7195 59.6257 25.2634 59.5784 25.8113C59.5386 26.3512 59.4868 26.8911 59.4234 27.431L59.3761 27.836C59.3524 28.0583 59.3125 28.2964 59.2572 28.5506C59.201 28.8046 59.1257 29.0032 59.0304 29.1461C58.9351 29.3367 58.8325 29.4875 58.7209 29.5987C58.6101 29.7098 58.4868 29.7971 58.3524 29.8607C58.2172 29.9242 58.0746 29.9678 57.9232 29.9917C57.7725 30.0076 57.61 30.0155 57.4358 30.0155C57.3323 30.0155 57.2208 30.0036 57.1019 29.9797C56.8958 29.9321 56.7289 29.8567 56.6019 29.7535C56.4748 29.6423 56.3722 29.5152 56.2924 29.3723C56.2134 29.2215 56.1536 29.0587 56.1144 28.8841C56.0745 28.7014 56.0464 28.5188 56.0309 28.3362C55.9992 28.0821 55.9792 27.832 55.9711 27.5858C55.963 27.3397 55.9556 27.0936 55.9475 26.8475C55.9393 26.7363 55.9356 26.6331 55.9356 26.5379C55.9356 26.4346 55.9312 26.3314 55.9238 26.2281C55.9312 26.0694 55.9356 25.9184 55.9356 25.7755C55.943 25.6327 55.9475 25.4897 55.9475 25.3468C55.963 24.9657 55.9792 24.6005 55.9948 24.2511C56.011 23.8939 56.031 23.5365 56.0546 23.1792C56.0701 22.9966 56.1018 22.814 56.1499 22.6314C56.1971 22.4487 56.2606 22.278 56.3404 22.1193C56.4749 21.8413 56.6499 21.6388 56.8641 21.5119C57.0864 21.3768 57.3242 21.3014 57.5783 21.2855C57.8088 21.2697 58.0503 21.2935 58.3044 21.3571C58.5585 21.4205 58.7608 21.5714 58.9115 21.8095C59.1655 22.2303 59.3362 22.6473 59.4234 23.0601C59.5186 23.473 59.5784 23.8462 59.6021 24.1796ZM57.5665 29.0032C57.6773 29.0032 57.7652 28.9913 57.828 28.9674C57.8914 28.9436 57.9395 28.9158 57.9713 28.8841C58.003 28.8444 58.0266 28.8046 58.0429 28.7649C58.0584 28.7173 58.0746 28.6736 58.0902 28.6339C58.2172 28.237 58.3161 27.8122 58.3878 27.3596C58.4668 26.907 58.5185 26.4584 58.5429 26.0138C58.5747 25.5612 58.5821 25.1285 58.5666 24.7156C58.5503 24.2948 58.5112 23.9216 58.4476 23.5961C58.3915 23.2706 58.3125 23.0085 58.2091 22.81C58.1138 22.6036 57.9993 22.4885 57.8642 22.4646C57.8405 22.4487 57.7652 22.4487 57.6381 22.4646C57.5185 22.4805 57.4195 22.5082 57.3405 22.548C57.3006 22.5638 57.2607 22.5956 57.2208 22.6433C57.1817 22.6909 57.1455 22.7465 57.1137 22.81C57.0901 22.8656 57.0664 22.9252 57.0428 22.9887C57.0266 23.0522 57.0185 23.1078 57.0185 23.1554C56.9948 23.6318 56.9631 24.1042 56.9239 24.5727C56.8921 25.0332 56.8722 25.4938 56.8641 25.9542C56.856 26.113 56.8604 26.2758 56.8759 26.4425C56.8995 26.6013 56.9113 26.7601 56.9113 26.9189C56.9113 27.0062 56.9158 27.0897 56.9239 27.169C56.9313 27.2485 56.9394 27.3318 56.9475 27.4191C56.9475 27.6097 56.9631 27.7963 56.9948 27.9789C57.0266 28.1536 57.0628 28.3282 57.1019 28.5029C57.1182 28.5823 57.1698 28.6776 57.257 28.7888C57.3523 28.892 57.455 28.9634 57.5665 29.0032Z" fill="#B0B5BE"/>
<path d="M50.599 23.1677C50.6069 22.9375 50.6506 22.7191 50.73 22.5127C50.8173 22.3062 50.9284 22.1196 51.0633 21.9529C51.2061 21.7862 51.3688 21.6513 51.5513 21.548C51.7339 21.4368 51.9284 21.3614 52.1347 21.3217C52.5632 21.2502 52.9402 21.2899 53.2656 21.4408C53.599 21.5837 53.8686 21.8457 54.0754 22.2269C54.1626 22.3856 54.2142 22.5683 54.2297 22.7747C54.2534 22.9811 54.246 23.1757 54.2061 23.3583C54.198 23.406 54.1706 23.4575 54.1227 23.5131C54.0754 23.5687 54.0156 23.6203 53.9439 23.668C53.8804 23.7076 53.8132 23.7434 53.7418 23.7751C53.6704 23.799 53.603 23.8149 53.5395 23.8228C53.4602 23.8387 53.3728 23.8347 53.2775 23.8109C53.1903 23.787 53.103 23.7275 53.0156 23.6322C52.9681 23.5767 52.9482 23.4933 52.9561 23.3821C52.972 23.2631 52.976 23.1478 52.9681 23.0368C52.9681 22.9256 52.9363 22.8303 52.8728 22.7509C52.8093 22.6715 52.6784 22.6397 52.4799 22.6556C52.218 22.6874 52.0315 22.7866 51.9204 22.9534C51.8172 23.1122 51.7537 23.2908 51.73 23.4893C51.7061 23.6799 51.7061 23.8624 51.73 24.0371C51.7537 24.2118 51.7656 24.327 51.7656 24.3825C51.7656 24.6843 51.7577 24.9701 51.7419 25.2401C51.726 25.5021 51.7061 25.7641 51.6823 26.0261C51.6664 26.2802 51.6545 26.5422 51.6467 26.8122C51.6387 27.0742 51.6387 27.3521 51.6467 27.6459C51.6467 27.7967 51.6783 27.9595 51.7419 28.1342C51.8053 28.3089 51.8927 28.428 52.0037 28.4915C52.0752 28.5312 52.1585 28.5749 52.2538 28.6224C52.349 28.6622 52.4482 28.6939 52.5514 28.7178C52.6546 28.7336 52.7538 28.7336 52.849 28.7178C52.9442 28.7019 53.0275 28.6582 53.099 28.5868C53.1704 28.5153 53.2062 28.3843 53.2062 28.1937C53.2062 28.0031 53.2022 27.8086 53.1942 27.6102C53.1942 27.4116 53.2062 27.2409 53.2299 27.098C53.2617 26.9472 53.3411 26.8796 53.468 26.8955C53.7221 26.9273 53.9048 27.0028 54.0156 27.1219C54.1271 27.2409 54.1825 27.3441 54.1825 27.4315C54.1825 27.5982 54.1825 27.7729 54.1825 27.9555C54.1906 28.1382 54.1862 28.3168 54.1706 28.4915C54.1544 28.6661 54.1227 28.8329 54.0754 28.9917C54.0355 29.1505 53.972 29.2894 53.8848 29.4085C53.7339 29.5991 53.5554 29.742 53.349 29.8373C53.1427 29.9325 52.9204 29.9921 52.6823 30.0159C52.4522 30.0318 52.218 30.0199 51.98 29.9802C51.7497 29.9405 51.5316 29.8849 51.3252 29.8135C51.1426 29.75 50.9958 29.6587 50.8847 29.5396C50.7736 29.4125 50.6863 29.2735 50.6228 29.1227C50.5673 28.9639 50.5315 28.7932 50.5157 28.6105C50.5077 28.42 50.5117 28.2294 50.5276 28.0389C50.5355 27.9118 50.5395 27.7252 50.5395 27.4791C50.5474 27.2251 50.5514 26.9432 50.5514 26.6335C50.5593 26.3159 50.5633 25.9864 50.5633 25.645C50.5712 25.2957 50.5752 24.9622 50.5752 24.6445C50.5752 24.327 50.5752 24.0371 50.5752 23.7751C50.5831 23.5131 50.5911 23.3106 50.599 23.1677Z" fill="#B0B5BE"/>
<path d="M48.879 24.1796C48.9108 24.7195 48.9029 25.2634 48.8552 25.8113C48.8156 26.3512 48.764 26.8911 48.7005 27.431L48.6528 27.836C48.629 28.0583 48.5893 28.2964 48.5338 28.5506C48.4782 28.8046 48.4028 29.0032 48.3076 29.1461C48.2123 29.3367 48.1091 29.4875 47.9981 29.5987C47.887 29.7098 47.7639 29.7971 47.629 29.8607C47.4941 29.9242 47.3513 29.9678 47.2005 29.9917C47.0497 30.0076 46.887 30.0155 46.7124 30.0155C46.6092 30.0155 46.498 30.0036 46.3791 29.9797C46.1727 29.9321 46.006 29.8567 45.879 29.7535C45.752 29.6423 45.6488 29.5152 45.5695 29.3723C45.4902 29.2215 45.4306 29.0587 45.391 28.8841C45.3512 28.7014 45.3235 28.5188 45.3076 28.3362C45.2759 28.0821 45.256 27.832 45.248 27.5858C45.2401 27.3397 45.2322 27.0936 45.2243 26.8475C45.2163 26.7363 45.2124 26.6331 45.2124 26.5379C45.2124 26.4346 45.2084 26.3314 45.2004 26.2281C45.2084 26.0694 45.2124 25.9184 45.2124 25.7755C45.2203 25.6327 45.2243 25.4897 45.2243 25.3468C45.2402 24.9657 45.256 24.6005 45.2719 24.2511C45.2878 23.8939 45.3076 23.5365 45.3314 23.1792C45.3473 22.9966 45.379 22.814 45.4266 22.6314C45.4743 22.4487 45.5377 22.278 45.6171 22.1193C45.752 21.8413 45.9267 21.6388 46.1409 21.5119C46.3632 21.3768 46.6013 21.3014 46.8553 21.2855C47.0854 21.2697 47.3274 21.2935 47.5814 21.3571C47.8354 21.4205 48.0377 21.5714 48.1886 21.8095C48.4425 22.2303 48.6132 22.6473 48.7005 23.0601C48.7957 23.473 48.8552 23.8462 48.879 24.1796ZM46.8433 29.0032C46.9544 29.0032 47.0417 28.9913 47.1052 28.9674C47.1687 28.9436 47.2163 28.9158 47.2481 28.8841C47.2798 28.8444 47.3037 28.8046 47.3195 28.7649C47.3354 28.7173 47.3512 28.6736 47.3671 28.6339C47.4941 28.237 47.5933 27.8122 47.6647 27.3596C47.7441 26.907 47.7957 26.4584 47.8195 26.0138C47.8512 25.5612 47.8591 25.1285 47.8433 24.7156C47.8274 24.2948 47.7877 23.9216 47.7243 23.5961C47.6688 23.2706 47.5893 23.0085 47.4861 22.81C47.3909 22.6036 47.2759 22.4885 47.1409 22.4646C47.1171 22.4487 47.0417 22.4487 46.9147 22.4646C46.7957 22.4805 46.6965 22.5082 46.6171 22.548C46.5774 22.5638 46.5378 22.5956 46.498 22.6433C46.4584 22.6909 46.4227 22.7465 46.391 22.81C46.3671 22.8656 46.3433 22.9252 46.3195 22.9887C46.3037 23.0522 46.2956 23.1078 46.2956 23.1554C46.2719 23.6318 46.2401 24.1042 46.2004 24.5727C46.1687 25.0332 46.1488 25.4938 46.1409 25.9542C46.133 26.113 46.137 26.2758 46.1528 26.4425C46.1766 26.6013 46.1886 26.7601 46.1886 26.9189C46.1886 27.0062 46.1925 27.0897 46.2004 27.169C46.2083 27.2485 46.2163 27.3318 46.2242 27.4191C46.2242 27.6097 46.2401 27.7963 46.2719 27.9789C46.3036 28.1536 46.3393 28.3282 46.3791 28.5029C46.3948 28.5823 46.4465 28.6776 46.5338 28.7888C46.629 28.892 46.7322 28.9634 46.8433 29.0032Z" fill="#B0B5BE"/>
<path d="M43.1694 21.3211C43.2249 21.3291 43.3004 21.341 43.3956 21.3569C43.4909 21.3727 43.5861 21.4125 43.6813 21.4759C43.7765 21.5315 43.8598 21.6188 43.9313 21.738C44.0027 21.8492 44.0385 22 44.0385 22.1905C44.0385 22.3256 44.0186 22.4327 43.9789 22.5121C43.9393 22.5836 43.8876 22.6392 43.8242 22.6788C43.7687 22.7186 43.7091 22.7464 43.6456 22.7623C43.5901 22.7702 43.5464 22.7782 43.5146 22.786H43.4551L43.4313 22.7979H42.7052C42.3321 22.79 42.1059 22.8258 42.0266 22.9052C41.9789 22.9529 41.9512 23.0402 41.9432 23.1672C41.9353 23.2863 41.9353 23.4371 41.9432 23.6198V24.1676V24.2152C41.9273 24.7869 41.9115 25.3546 41.8956 25.9184C41.8797 26.4821 41.8638 27.0419 41.848 27.5977L41.8122 28.7767V28.8601C41.8122 28.9077 41.8122 28.9554 41.8122 29.0031C41.8122 29.0427 41.8083 29.0824 41.8004 29.1222V29.3007V29.3365C41.8083 29.408 41.8122 29.4953 41.8122 29.5985C41.8122 29.6938 41.7726 29.7812 41.6933 29.8605C41.6138 29.9638 41.4829 30.0153 41.3004 30.0153C41.0781 30.0153 40.9076 29.9518 40.7885 29.8248C40.6853 29.7215 40.6258 29.6105 40.6099 29.4913C40.594 29.3643 40.5861 29.269 40.5861 29.2055C40.6019 28.483 40.6178 27.7684 40.6337 27.0617C40.6496 26.3471 40.6654 25.6405 40.6813 24.9418L40.7051 24.0485V23.7865C40.7051 23.6753 40.7051 23.5641 40.7051 23.453C40.7051 23.3419 40.713 23.2386 40.7289 23.1433C40.7448 23.0163 40.7488 22.937 40.7408 22.9052C40.7408 22.8655 40.7249 22.8258 40.6933 22.786L40.6694 22.7504C40.6535 22.7345 40.6297 22.7225 40.598 22.7146C40.5742 22.7067 40.5067 22.7027 40.3956 22.7027H40.3242C40.2607 22.7027 40.1734 22.6987 40.0623 22.6908C39.9591 22.6828 39.848 22.6669 39.7289 22.6431C39.6099 22.6193 39.4908 22.5836 39.3718 22.5359C39.2607 22.4883 39.1694 22.4248 39.0979 22.3453C38.9868 22.2263 38.9392 22.0833 38.9551 21.9166C38.971 21.7419 39.0305 21.611 39.1337 21.5236C39.2448 21.4363 39.3678 21.3767 39.5028 21.3449C39.6456 21.3052 39.7844 21.2854 39.9194 21.2854C40.0623 21.2854 40.1734 21.2893 40.2527 21.2973H40.3361C40.4155 21.2973 40.5305 21.2973 40.6813 21.2973C40.84 21.2973 40.9948 21.3013 41.1456 21.3092C41.2964 21.3092 41.4273 21.3132 41.5385 21.3211C41.6575 21.3211 41.717 21.3211 41.717 21.3211C41.7408 21.3211 41.7964 21.3211 41.8837 21.3211C41.971 21.3211 42.0741 21.3211 42.1932 21.3211C42.3202 21.3211 42.4591 21.3211 42.6098 21.3211C42.7607 21.3132 42.9115 21.3092 43.0622 21.3092H43.0741H43.098H43.1575L43.1694 21.3211Z" fill="#B0B5BE"/>
<path d="M37.7948 24.1796C37.8266 24.7195 37.8186 25.2634 37.771 25.8113C37.7313 26.3512 37.6797 26.8911 37.6162 27.431L37.5686 27.836C37.5448 28.0583 37.5052 28.2964 37.4496 28.5506C37.394 28.8046 37.3186 29.0032 37.2234 29.1461C37.1282 29.3367 37.025 29.4875 36.9139 29.5987C36.8027 29.7098 36.6798 29.7971 36.5448 29.8607C36.4099 29.9242 36.267 29.9678 36.1162 29.9917C35.9654 30.0076 35.8027 30.0155 35.6281 30.0155C35.525 30.0155 35.4139 30.0036 35.2948 29.9797C35.0884 29.9321 34.9218 29.8567 34.7949 29.7535C34.6678 29.6423 34.5646 29.5152 34.4853 29.3723C34.4059 29.2215 34.3464 29.0587 34.3067 28.8841C34.267 28.7014 34.2392 28.5188 34.2234 28.3362C34.1916 28.0821 34.1718 27.832 34.1639 27.5858C34.1559 27.3397 34.148 27.0936 34.1401 26.8475C34.1321 26.7363 34.1282 26.6331 34.1282 26.5379C34.1282 26.4346 34.1242 26.3314 34.1162 26.2281C34.1242 26.0694 34.1282 25.9184 34.1282 25.7755C34.1361 25.6327 34.1401 25.4897 34.1401 25.3468C34.1559 24.9657 34.1718 24.6005 34.1876 24.2511C34.2035 23.8939 34.2234 23.5365 34.2472 23.1792C34.2631 22.9966 34.2948 22.814 34.3424 22.6314C34.39 22.4487 34.4535 22.278 34.533 22.1193C34.6678 21.8413 34.8424 21.6388 35.0567 21.5119C35.2789 21.3768 35.517 21.3014 35.771 21.2855C36.0011 21.2697 36.2433 21.2935 36.4972 21.3571C36.7512 21.4205 36.9536 21.5714 37.1043 21.8095C37.3583 22.2303 37.5289 22.6473 37.6162 23.0601C37.7115 23.473 37.771 23.8462 37.7948 24.1796ZM35.7591 29.0032C35.8702 29.0032 35.9575 28.9913 36.021 28.9674C36.0845 28.9436 36.1321 28.9158 36.1638 28.8841C36.1956 28.8444 36.2194 28.8046 36.2353 28.7649C36.2511 28.7173 36.267 28.6736 36.2829 28.6339C36.4099 28.237 36.5091 27.8122 36.5805 27.3596C36.6599 26.907 36.7114 26.4584 36.7353 26.0138C36.767 25.5612 36.775 25.1285 36.7591 24.7156C36.7432 24.2948 36.7035 23.9216 36.64 23.5961C36.5845 23.2706 36.5051 23.0085 36.4019 22.81C36.3067 22.6036 36.1916 22.4885 36.0567 22.4646C36.0329 22.4487 35.9575 22.4487 35.8305 22.4646C35.7115 22.4805 35.6123 22.5082 35.5329 22.548C35.4932 22.5638 35.4535 22.5956 35.4139 22.6433C35.3742 22.6909 35.3385 22.7465 35.3067 22.81C35.2829 22.8656 35.2591 22.9252 35.2352 22.9887C35.2194 23.0522 35.2115 23.1078 35.2115 23.1554C35.1876 23.6318 35.1559 24.1042 35.1162 24.5727C35.0845 25.0332 35.0647 25.4938 35.0567 25.9542C35.0488 26.113 35.0528 26.2758 35.0686 26.4425C35.0925 26.6013 35.1043 26.7601 35.1043 26.9189C35.1043 27.0062 35.1083 27.0897 35.1162 27.169C35.1242 27.2485 35.1321 27.3318 35.14 27.4191C35.14 27.6097 35.1559 27.7963 35.1876 27.9789C35.2194 28.1536 35.2551 28.3282 35.2948 28.5029C35.3107 28.5823 35.3622 28.6776 35.4495 28.7888C35.5448 28.892 35.648 28.9634 35.7591 29.0032Z" fill="#B0B5BE"/>
<path d="M32.7591 29.539C32.7671 29.6025 32.7671 29.666 32.7591 29.7296C32.7591 29.7851 32.7353 29.8328 32.6877 29.8725C32.6162 29.9677 32.406 30.0153 32.0568 30.0153C31.9695 30.0153 31.902 29.9916 31.8544 29.9439C31.8068 29.8884 31.771 29.8248 31.7472 29.7533C31.7234 29.674 31.7076 29.5946 31.6996 29.5151C31.6917 29.4278 31.6837 29.3484 31.6758 29.277C31.6758 29.2134 31.6718 29.1698 31.6639 29.1459C31.6322 28.9236 31.5726 28.7092 31.4853 28.5028C31.398 28.2963 31.2949 28.1058 31.1758 27.9312C31.0568 27.7565 30.9258 27.6056 30.7829 27.4786C30.6481 27.3436 30.5131 27.2364 30.3782 27.157C30.1083 27.0141 29.8861 26.9783 29.7115 27.0498L29.6996 27.0617C29.6837 27.0775 29.6718 27.1212 29.6639 27.1927C29.6639 27.2562 29.6639 27.3357 29.6639 27.4309C29.6639 27.5261 29.6678 27.6294 29.6758 27.7406C29.6837 27.8438 29.6917 27.9431 29.6996 28.0383C29.7155 28.2289 29.7314 28.4194 29.7473 28.61C29.7631 28.8006 29.7631 28.9673 29.7473 29.1102C29.7393 29.142 29.7354 29.1738 29.7354 29.2055C29.7433 29.2293 29.7473 29.2571 29.7473 29.2888C29.7551 29.3762 29.7513 29.4714 29.7354 29.5747C29.7274 29.6779 29.6917 29.7653 29.6282 29.8367C29.525 29.9399 29.3822 29.9916 29.1997 29.9916C29.0091 30.0075 28.8583 29.9598 28.7472 29.8486C28.652 29.7613 28.5964 29.6501 28.5806 29.5151C28.5727 29.3802 28.5687 29.2651 28.5687 29.1698V29.0864C28.5607 28.1733 28.5647 27.2642 28.5806 26.3591C28.5964 25.4459 28.6123 24.5407 28.6282 23.6436C28.6361 23.3974 28.6401 23.1553 28.6401 22.9171C28.6481 22.671 28.652 22.4248 28.652 22.1786C28.6599 21.9802 28.6956 21.8253 28.7591 21.7142C28.8306 21.5951 28.9179 21.5038 29.0211 21.4403C29.1242 21.3767 29.2353 21.337 29.3544 21.3211C29.4734 21.2973 29.5885 21.2854 29.6996 21.2854C29.9853 21.2854 30.2671 21.3331 30.5449 21.4284C30.8226 21.5236 31.0806 21.6586 31.3186 21.8333C31.5647 22.0079 31.779 22.2104 31.9615 22.4407C32.152 22.671 32.2909 22.9211 32.3781 23.191C32.4813 23.5006 32.525 23.8064 32.5091 24.108C32.5012 24.4018 32.4496 24.6837 32.3544 24.9537C32.267 25.2157 32.1441 25.4618 31.9853 25.6921C31.8345 25.9224 31.6639 26.1208 31.4734 26.2876C31.4734 26.3591 31.4932 26.4504 31.533 26.5615C31.5805 26.6647 31.6361 26.7838 31.6996 26.9187C31.771 27.0458 31.8464 27.1808 31.9258 27.3237C32.0131 27.4667 32.0965 27.6096 32.1758 27.7525C32.2472 27.8716 32.3147 27.9867 32.3781 28.0979C32.4417 28.209 32.5012 28.3162 32.5568 28.4194C32.5885 28.475 32.6162 28.5505 32.6401 28.6457C32.6639 28.7331 32.6837 28.8284 32.6996 28.9316C32.7235 29.0348 32.7393 29.138 32.7472 29.2412C32.7551 29.3445 32.7591 29.4358 32.7591 29.5151V29.539ZM29.8663 22.5121C29.8425 22.5518 29.8187 22.6471 29.7948 22.7979C29.779 22.9489 29.767 23.1275 29.7591 23.3339C29.7513 23.5324 29.7473 23.7468 29.7473 23.9771C29.7473 24.2073 29.7513 24.4257 29.7591 24.6321C29.767 24.8385 29.779 25.0172 29.7948 25.168C29.8107 25.3189 29.8306 25.4182 29.8543 25.4658C30.0607 25.4816 30.2512 25.4618 30.4258 25.4063C30.6083 25.3427 30.771 25.2435 30.9139 25.1085C31.0726 24.9735 31.1917 24.8108 31.271 24.6202C31.3584 24.4217 31.402 24.2192 31.402 24.0128C31.402 23.8937 31.3742 23.7746 31.3186 23.6554C31.271 23.5285 31.2035 23.4093 31.1162 23.2982C31.0369 23.1791 30.9417 23.0679 30.8306 22.9647C30.7195 22.8615 30.6083 22.7742 30.4972 22.7027C30.2194 22.528 30.0091 22.4645 29.8663 22.5121Z" fill="#B0B5BE"/>
<path d="M26.5163 22.6076C26.7782 23.0125 26.9369 23.4412 26.9925 23.8938C27.0481 24.3464 26.9925 24.791 26.8258 25.2277C26.4766 26.1249 25.8893 26.5934 25.0639 26.6331C24.7782 26.649 24.5718 26.7284 24.4449 26.8713C24.3179 27.0063 24.2584 27.2285 24.2663 27.5383C24.2663 27.6256 24.2663 27.7209 24.2663 27.8241C24.2743 27.9194 24.2822 28.0146 24.2901 28.11C24.306 28.2608 24.3179 28.4156 24.3258 28.5744C24.3338 28.7252 24.3298 28.88 24.3139 29.0389C24.306 29.0945 24.3021 29.1778 24.3021 29.289C24.3099 29.3922 24.3021 29.4995 24.2782 29.6105C24.2623 29.7138 24.2187 29.809 24.1473 29.8964C24.0838 29.9758 23.9806 30.0155 23.8378 30.0155C23.6949 30.0155 23.5838 29.9837 23.5044 29.9202C23.433 29.8488 23.3774 29.7693 23.3377 29.682C23.3061 29.5868 23.2902 29.4914 23.2902 29.3962C23.2902 29.293 23.2902 29.2056 23.2902 29.1342C23.2822 28.9754 23.2783 28.8682 23.2783 28.8126C23.2783 28.7491 23.2822 28.7054 23.2902 28.6816L23.2544 26.7522C23.2385 25.9741 23.2266 25.2198 23.2187 24.4893C23.2107 23.7509 23.2029 23.0125 23.1948 22.2741C23.187 22.0835 23.1948 21.9208 23.2187 21.7857C23.2425 21.6508 23.298 21.5396 23.3854 21.4523C23.4647 21.3729 23.5718 21.3253 23.7068 21.3094C23.8497 21.2856 24.0242 21.2776 24.2306 21.2856C24.683 21.3015 25.1115 21.4285 25.5163 21.6666C25.921 21.8969 26.2544 22.2105 26.5163 22.6076ZM24.2544 24.5845C24.2385 24.7751 24.2385 24.9459 24.2544 25.0967C24.2703 25.2317 24.2941 25.3627 24.3258 25.4897C24.3655 25.6089 24.437 25.6882 24.5402 25.728C24.6433 25.7676 24.7346 25.7875 24.8139 25.7875C24.8933 25.7875 24.9687 25.7756 25.0401 25.7517C25.1115 25.72 25.175 25.6843 25.2306 25.6445C25.2941 25.5969 25.3537 25.5533 25.4092 25.5136C25.5758 25.4024 25.6989 25.2794 25.7782 25.1443C25.8576 25.0015 25.9092 24.8546 25.933 24.7037C25.9647 24.5529 25.9727 24.398 25.9568 24.2392C25.9488 24.0804 25.929 23.9216 25.8973 23.7628C25.8178 23.3817 25.687 23.084 25.5044 22.8696C25.3219 22.6473 25.0798 22.4925 24.7782 22.4051C24.5718 22.3575 24.429 22.3654 24.3497 22.4289C24.2782 22.4925 24.2425 22.6155 24.2425 22.7981C24.2505 23.0045 24.2544 23.211 24.2544 23.4174C24.2544 23.6239 24.2544 23.8303 24.2544 24.0367V24.5845Z" fill="#B0B5BE"/>
<path fill-rule="evenodd" clip-rule="evenodd" d="M40.8508 0.179499C40.7299 0.271421 40.4246 0.780242 40.1636 1.30635C39.9071 1.83254 39.3731 2.83718 38.9757 3.541L38.2564 4.81779L36.4614 4.90446C29.4868 5.24333 29.3043 5.29993 28.2667 5.62203C27.9532 5.71934 27.5616 5.84097 26.8808 6.00183C25.3684 6.3607 25.1622 6.49855 25.4336 6.92588C25.7049 7.35314 26.1094 7.39999 27.3417 7.14605C27.4058 7.13285 27.4687 7.11984 27.5307 7.10702C29.1016 6.78233 30.084 6.5793 33.9567 6.47341L37.5224 6.37634L37.0876 7.53009C36.8475 8.16369 36.57 9.02178 36.4709 9.43703L36.2909 10.1912L34.7976 10.2874C33.9767 10.3411 32.4408 10.3853 31.3849 10.3853C29.2107 10.3861 28.7593 10.2562 27.9062 9.38068C27.4452 8.91001 27.2966 8.83289 26.7494 8.79204C26.1815 8.74876 26.1207 8.80336 26.1207 9.3399C26.1112 9.76165 26.0655 10.1819 25.9841 10.5959L25.8467 11.2573C25.651 11.1979 25.5475 11.1359 25.4827 11.077C25.3074 10.6493 24.4495 10.2851 24.0995 10.4277C23.0952 10.8304 22.5834 10.95 21.9774 11.0918C21.5343 11.1954 21.0408 11.3108 20.2676 11.5573C19.4205 11.8208 18.5674 12.0652 17.6881 12.2914C17.4974 12.3415 17.2958 12.4048 17.087 12.4706C16.4346 12.6757 15.7105 12.9036 15.0207 12.8176C15.3091 12.5795 15.5276 12.2293 15.747 11.8779C15.9088 11.6187 16.071 11.3589 16.2618 11.1429C16.3481 11.0534 16.4924 10.9454 16.6544 10.8243C17.1046 10.4874 17.6916 10.048 17.5515 9.61905C17.4333 9.26109 16.7375 8.82851 16.3896 8.73488C15.7101 8.54923 15.34 8.98469 15.0074 9.37586C14.9347 9.46136 14.8639 9.54474 14.792 9.61905C14.6961 9.71162 14.5821 9.81294 14.4589 9.92246C13.7047 10.593 12.6068 11.5691 13.2265 12.6866C13.8345 13.7589 15.4678 14.0787 16.4583 14.1352C18.7982 14.2415 19.6717 13.879 21.4114 13.1569C21.5145 13.1141 21.6207 13.07 21.7305 13.0247C21.9027 12.9534 22.0755 12.8814 22.2484 12.8089C22.9331 12.5349 23.3922 12.3564 23.5055 12.3564C23.5507 12.3564 24.0247 12.6373 24.1899 12.9718C24.5674 13.7389 25.3423 14.2426 26.1424 14.2426C26.8669 14.2417 27.2461 13.8508 27.7949 12.5411C28.2567 11.4393 28.2601 11.4376 28.8846 11.6647C29.9482 12.0522 31.3571 12.2073 33.8192 12.2073H36.1822L36.2762 12.6087C36.3768 12.9367 36.5213 13.2499 36.7058 13.5396C37.1538 14.2476 37.7762 14.5349 38.927 14.5552C39.0196 14.5662 39.114 14.572 39.2096 14.572C41.4369 14.3986 43.7547 13.8378 45.5445 12.9346C45.6197 12.8948 45.7024 12.8529 45.7907 12.809C46.3332 13.519 47.5912 13.8897 48.3006 13.8733C50.5374 13.8551 52.5751 13.3471 54.4343 12.5939C55.2313 14.5512 58.2101 14.2469 59.4738 13.9869C60.5248 13.7659 61.4614 13.3842 62.3477 12.9334C62.7777 13.3695 63.4851 13.665 63.9961 13.7233C65.7769 13.8933 67.6014 12.8656 68.9662 12.0966L68.968 12.0961C69.1131 12.014 69.2539 11.9349 69.3884 11.8606C69.8049 13.171 71.1591 13.4306 72.3863 13.3489C72.4282 13.3471 72.4707 13.3449 72.5145 13.3422C72.8366 13.3266 73.1212 13.2871 73.3626 13.2308C73.5659 13.1896 73.7748 13.1363 73.9868 13.0684C75.3798 12.6214 76.1003 12.2539 76.2185 12.1907C76.8909 11.9446 78.3745 11.0671 78.9337 9.52748C79.6286 6.75325 80.7645 4.30955 82.1637 2.57789C82.6021 2.03493 82.644 1.84 82.402 1.45909C82.0161 0.849257 81.1604 0.44758 80.7044 0.661495C79.8988 1.03828 77.1899 6.47009 76.4681 9.15269C76.3361 9.64444 75.8783 10.3974 75.458 10.6591C75.3485 10.7274 75.2259 10.7959 75.0946 10.8639C74.0888 11.3098 72.7922 11.8042 71.7345 11.9424C71.615 11.9438 71.4918 11.9468 71.3636 11.9516C71.4324 11.633 71.5825 11.3689 71.7245 11.1186C71.859 10.8811 71.9866 10.6559 72.0316 10.4085C72.0948 9.99452 71.8458 9.65582 71.3505 9.35466C70.7656 8.9937 70.5424 9.04768 70.1502 9.14225C70.0926 9.15613 70.032 9.17083 69.9657 9.18534C69.5028 9.29255 68.9274 9.25314 68.3469 9.2133C67.9079 9.18328 67.4663 9.15294 67.0666 9.18534C65.82 9.29336 64.7136 9.64363 63.7722 10.2014C63.4413 10.395 63.1299 10.6142 62.8403 10.8574L62.7952 10.8864C62.627 10.9942 62.4695 11.0952 62.3256 11.1663C60.5706 11.994 58.524 12.8409 56.2808 12.8409C56.3887 12.6928 56.4285 12.4687 56.4662 12.2523C56.4913 12.1114 56.515 11.9737 56.5578 11.8623C56.5866 11.7829 56.6235 11.7118 56.6597 11.6432C56.769 11.4353 56.865 11.2518 56.6738 10.9409C56.1331 10.075 55.0193 10.1877 54.5156 10.4703C52.4153 11.5662 50.1208 12.2434 47.7604 12.4638C48.0849 11.9395 48.524 11.495 49.045 11.1637C49.1333 11.1055 49.2373 11.06 49.3386 11.0155C49.6304 10.8874 49.8997 10.7693 49.706 10.3922C49.1902 9.35728 47.8813 9.5453 47.3508 9.86523C47.051 10.0467 46.6464 10.3103 46.294 10.6351C45.1114 11.4237 43.599 11.8754 42.1293 12.3142L42.1276 12.3147C42.0674 12.3327 42.0074 12.3506 41.9474 12.3685C41.8166 12.4064 41.684 12.4454 41.5498 12.4848C39.5559 13.0236 38.4952 12.5316 38.4095 12.4803C38.0294 12.255 38.4017 10.4078 39.2183 8.47136L40.0976 6.37978L42.0109 6.48204C47.1178 6.75425 49.2555 7.01082 49.7599 7.413C50.7001 8.161 51.848 7.97642 51.4219 7.14517C50.6983 5.72799 48.4023 5.04227 43.8277 4.87416L40.9577 4.76842L41.9735 3.05649C42.7971 1.66347 42.9389 1.26305 42.7258 0.927585C42.4475 0.488147 41.6857 -0.00766875 41.3012 8.99122e-05C41.1373 0.0170112 40.9812 0.0791538 40.8508 0.179499ZM65.0913 11.7473C65.0519 11.7773 65.0125 11.8078 64.9744 11.8387C65.8657 11.5244 66.6901 11.1194 67.5007 10.6772C66.63 10.8587 65.8088 11.2239 65.0913 11.7473Z" fill="#B0B5BE"/>
<path fill-rule="evenodd" clip-rule="evenodd" d="M13.6937 8.77799C15.2843 8.22276 16.7832 7.27535 17.9289 6.24667L17.9298 6.24844C17.9744 6.2067 18.002 6.14995 18.0072 6.08921C18.0123 6.02839 17.9947 5.96787 17.9578 5.91925C17.9208 5.87056 17.8672 5.83731 17.8071 5.82571C17.747 5.81418 17.6848 5.82519 17.6324 5.85659C16.4831 6.54398 15.2148 7.08821 13.9146 7.4204C13.9534 6.92571 13.9453 6.42789 13.8813 5.93292C13.7343 4.83378 13.3613 3.73559 12.5855 2.89906C11.7262 1.94822 10.3156 1.5928 9.09796 1.97334C7.63517 2.40849 6.41587 3.72687 6.36889 5.30011C6.30972 7.3718 8.23875 9.06033 10.2017 9.25016C10.4306 9.27524 10.6616 9.28738 10.8939 9.28769C10.5319 10.079 10.0622 10.835 9.55969 11.535C8.01646 8.98821 5.70283 6.90225 2.95272 5.76127C2.3122 5.49023 1.6482 5.27809 0.96891 5.12765C0.737578 5.07998 0.51755 5.0375 0.273147 5.0106C0.213837 5.00498 0.154453 5.02072 0.105706 5.05501C0.057032 5.08922 0.0222436 5.13976 0.00761929 5.19732C-0.00700505 5.25496 -0.000431469 5.31585 0.0260844 5.36905C0.052674 5.42226 0.0974345 5.46423 0.152312 5.48735C1.68764 6.24689 3.09586 7.23876 4.32681 8.4276C5.92205 9.96295 7.17876 11.8127 8.01696 13.859C8.38661 14.7405 9.54587 15.0629 10.3217 14.4961C10.4407 14.4082 10.5496 14.3074 10.6461 14.1952C11.3415 13.441 11.9538 12.6145 12.4724 11.7301C13.0022 10.8262 13.4386 9.82222 13.6937 8.77799ZM10.2518 12.8157L10.2721 12.8569C10.2657 12.843 10.2589 12.8292 10.2518 12.8157ZM11.4359 7.73376C11.5574 7.21474 11.6177 6.68697 11.5984 6.15571C11.5471 5.2022 11.1801 3.85515 10.0469 3.83438C9.071 3.82308 8.17351 4.7454 8.45266 5.72484C8.86591 7.15438 10.1 7.67572 11.4359 7.73376Z" fill="#B0B5BE"/>
<path d="M18.6829 5.27399C18.7829 5.7404 18.9368 6.03597 19.3865 5.97612C19.7727 5.92499 20.0909 5.53757 20.0909 5.15008C20.0909 4.76258 19.7709 4.51209 19.3865 4.57276C18.8986 4.6499 18.6011 4.89522 18.6829 5.27399Z" fill="#B0B5BE"/>
<path d="M78.7162 12.5802C78.1489 12.3639 77.6016 12.1555 78.1896 11.8124C78.6049 11.5698 79.2904 11.3588 80.0347 11.1297C80.7571 10.9075 81.534 10.6682 82.1738 10.3666C84.924 9.06938 86.2388 8.80005 87.2014 9.33565C88.4136 10.0098 88.2222 10.8021 86.7755 11.1031C86.2707 11.2081 85.1305 11.6487 84.241 12.0824C81.4214 13.457 80.5776 13.5883 79.3273 12.8471C79.1653 12.7511 78.9395 12.665 78.7162 12.5802Z" fill="#B0B5BE"/>
</svg>
