<svg width="136" height="30" viewBox="0 0 136 30" fill="none" xmlns="http://www.w3.org/2000/svg">
<path d="M29.9197 7.23747C30.2954 5.76332 29.405 4.26366 27.9308 3.88789C26.4567 3.51213 24.957 4.40255 24.5813 5.8767C24.2055 7.35086 25.0959 8.85052 26.5701 9.22628C28.0442 9.60205 29.5439 8.71163 29.9197 7.23747Z" fill="#B0B5BE"/>
<path d="M20.6687 4.76772C23.2142 1.59129 18.7511 -1.60138 16.4187 1.30842C16.2878 1.43958 1.16296 20.0796 1.0606 20.2348C-1.62699 23.5883 2.64863 27.0151 5.31062 23.6941C5.44137 23.5628 20.5663 4.92285 20.6687 4.76772Z" fill="#B0B5BE"/>
<path d="M24.0005 14.9169C26.4434 11.8688 22.1679 8.44202 19.7518 11.4565C19.6198 11.5885 9.34522 24.2963 9.24204 24.4528C6.78306 27.6375 11.0585 31.0642 13.4908 27.9132C13.6228 27.7812 23.8975 15.0734 24.0005 14.9169Z" fill="#B0B5BE"/>
<path d="M5.1336 9.12845C6.55542 8.58747 7.26948 6.9963 6.7285 5.57448C6.18752 4.15266 4.59636 3.4386 3.17453 3.97958C1.75271 4.52056 1.03865 6.11172 1.57963 7.53354C2.12061 8.95536 3.71177 9.66943 5.1336 9.12845Z" fill="#B0B5BE"/>
<g clip-path="url(#clip0_396_778)">
<path d="M119.045 22.11H110.328V8.07483H119.045V10.3404H112.785V13.95H118.392V16.1196H112.785V19.8444H119.045V22.11Z" fill="#B0B5BE"/>
<path d="M98.197 22.11H95.7778V8.07483H98.2162L104.802 18.0204V8.07483H107.221V22.11H104.802L98.197 12.1644V22.11Z" fill="#B0B5BE"/>
<path d="M92.6666 8.07483V22.11H90.209V8.07483H92.6666Z" fill="#B0B5BE"/>
<path d="M82.3353 8.07483V19.8444H88.2105V22.11H79.8777V8.07483H82.3353Z" fill="#B0B5BE"/>
<path d="M72.1363 16.3692L67.4707 8.36279H69.0259L72.4243 14.2956C72.5779 14.5836 72.6931 14.814 72.8275 15.1212C73.0003 14.7756 73.0003 14.7756 73.2499 14.2956L76.6099 8.36279H78.1267L73.5187 16.3692V22.11H72.1363V16.3692Z" fill="#B0B5BE"/>
<path d="M57.8867 22.11H56.4851L61.5347 8.36279H63.2435L68.3507 22.11H66.9107L65.5667 18.462H59.2307L57.8867 22.11ZM62.2067 10.302L59.6531 17.2524H65.1251L62.5523 10.302C62.4947 10.11 62.3987 9.87959 62.3795 9.74519C62.3603 9.86039 62.2835 10.11 62.2067 10.302Z" fill="#B0B5BE"/>
<path d="M43.1377 22.11L39.0481 8.36279H40.4881L43.2721 17.8092C43.4641 18.4812 43.6369 19.1724 43.8097 20.0748C44.0401 19.0764 44.2321 18.4812 44.4433 17.8092L47.4385 8.36279H48.8785L51.8737 17.8092C52.0849 18.5004 52.2769 19.1916 52.4881 20.0748C52.6993 19.0188 52.8721 18.3468 53.0257 17.8284L55.8673 8.36279H57.2689L53.1409 22.11H51.8353L48.1489 10.4364L44.4625 22.11H43.1377Z" fill="#B0B5BE"/>
</g>
<defs>
<clipPath id="clip0_396_778">
<rect width="96.6" height="30" fill="white" transform="translate(39)"/>
</clipPath>
</defs>
</svg>
