<svg width="40" height="40" viewBox="0 0 40 40" fill="none" xmlns="http://www.w3.org/2000/svg">
<path d="M39.8915 19.9997C39.8915 30.9873 30.9846 39.8945 19.9972 39.8945C9.00961 39.8945 0.102539 30.9873 0.102539 19.9997C0.102539 9.01229 9.00961 0.105225 19.9972 0.105225C30.9845 0.105225 39.8915 9.01229 39.8915 19.9997Z" fill="#6374C3"/>
<path d="M19.9332 10.769L19.8103 11.1867V23.3064L19.9332 23.4291L25.559 20.1037L19.9332 10.769Z" fill="white"/>
<path d="M19.9332 10.769L14.3074 20.1037L19.9332 23.4291V17.5466V10.769Z" fill="white"/>
<path d="M19.9328 25.259L19.8635 25.3435V29.6608L19.9328 29.863L25.562 21.9353L19.9328 25.259Z" fill="white"/>
<path d="M19.9332 29.863V25.259L14.3074 21.9353L19.9332 29.863Z" fill="white"/>
<path d="M19.9333 23.4301L25.5591 20.1047L19.9333 17.5476V23.4301Z" fill="white"/>
<path d="M14.3074 20.1047L19.9331 23.4301V17.5476L14.3074 20.1047Z" fill="white"/>
</svg>
