<svg width="40" height="40" viewBox="0 0 40 40" fill="none" xmlns="http://www.w3.org/2000/svg">
<circle cx="20" cy="20" r="20" fill="#C4C4C4"/>
<g clip-path="url(#clip0_396_171)">
<path d="M39.4019 24.8368C36.7298 35.5568 25.8687 42.0734 15.164 39.401C4.44366 36.7288 -2.0729 25.8682 0.599441 15.1637C3.27163 4.44366 14.1169 -2.0729 24.8373 0.599443C35.5419 3.25601 42.0743 14.1166 39.4019 24.8368Z" fill="url(#paint0_linear_396_171)"/>
<path d="M29.5222 17.5081C29.9128 14.8518 27.8972 13.4143 25.116 12.4612L26.0222 8.85181L23.8347 8.30493L22.9597 11.8206C22.3816 11.6799 21.7878 11.5393 21.1941 11.4143L22.0691 7.88306L19.8816 7.33618L18.991 10.9299C18.5066 10.8206 18.0378 10.7112 17.5847 10.6018V10.5862L14.5535 9.83618L13.9753 12.1799C13.9753 12.1799 15.6003 12.5549 15.5691 12.5706C16.4597 12.7893 16.616 13.3831 16.5847 13.8518L15.5535 17.9612C15.616 17.9768 15.6941 17.9924 15.7878 18.0393C15.7097 18.0237 15.6316 18.0081 15.5535 17.9768L14.116 23.7268C14.0066 23.9924 13.7253 24.3987 13.116 24.2424C13.1316 24.2737 11.5222 23.8518 11.5222 23.8518L10.4285 26.3674L13.2878 27.0862C13.8191 27.2268 14.3347 27.3518 14.8503 27.4924L13.9441 31.1331L16.1316 31.6799L17.0378 28.0706C17.6316 28.2268 18.2253 28.3831 18.7878 28.5237L17.8972 32.1174L20.0847 32.6643L20.991 29.0237C24.741 29.7268 27.5535 29.4456 28.7253 26.0549C29.6785 23.3362 28.6785 21.7581 26.7097 20.7268C28.1628 20.3987 29.241 19.4456 29.5222 17.5081ZM24.5066 24.5393C23.8347 27.2581 19.241 25.7893 17.7566 25.4143L18.9597 20.5862C20.4441 20.9612 25.2253 21.6956 24.5066 24.5393ZM25.1941 17.4612C24.5691 19.9456 20.7566 18.6799 19.5222 18.3674L20.616 13.9924C21.8503 14.3049 25.8347 14.8831 25.1941 17.4612Z" fill="#FAFAFA"/>
</g>
<defs>
<linearGradient id="paint0_linear_396_171" x1="19.9894" y1="-0.00935585" x2="19.9894" y2="39.9962" gradientUnits="userSpaceOnUse">
<stop stop-color="#F9AA4B"/>
<stop offset="1" stop-color="#F7931A"/>
</linearGradient>
<clipPath id="clip0_396_171">
<rect width="40" height="40" fill="white"/>
</clipPath>
</defs>
</svg>
