<svg width="150" height="150" viewBox="0 0 150 150" fill="none" xmlns="http://www.w3.org/2000/svg">
<g clip-path="url(#clip0_396_933)">
<rect width="150" height="150" rx="75" fill="#1F1F23"/>
<g style="mix-blend-mode:luminosity" clip-path="url(#clip1_396_933)" filter="url(#filter0_ddddd_396_933)">
<path d="M75 130C105.376 130 130 105.376 130 75C130 44.6243 105.376 20 75 20C44.6243 20 20 44.6243 20 75C20 105.376 44.6243 130 75 130Z" fill="#FDD835"/>
<path opacity="0.5" d="M75 20C44.6254 20 20 44.6254 20 75C20 105.375 44.6254 130 75 130C105.375 130 130 105.375 130 75C130 44.6254 105.375 20 75 20ZM75 127.637C45.9295 127.637 22.3633 104.071 22.3633 75C22.3633 45.9295 45.9295 22.3633 75 22.3633C104.071 22.3633 127.637 45.9295 127.637 75C127.637 104.071 104.071 127.637 75 127.637Z" fill="white"/>
<path opacity="0.5" d="M119.681 77.3805C119.681 101.179 100.386 120.474 76.5877 120.474C63.218 120.474 51.2663 114.385 43.3665 104.827C51.2362 113.335 62.4983 118.661 75 118.661C98.7983 118.661 118.093 99.3654 118.093 75.5672C118.093 65.1408 114.389 55.576 108.223 48.1209C115.337 55.808 119.681 66.0861 119.681 77.3805Z" fill="white"/>
<path d="M75.0001 118.661C98.7999 118.661 118.093 99.367 118.093 75.5672C118.093 51.7674 98.7999 32.4738 75.0001 32.4738C51.2003 32.4738 31.9067 51.7674 31.9067 75.5672C31.9067 99.367 51.2003 118.661 75.0001 118.661Z" fill="#F39E09"/>
<path d="M107.656 47.4484C100.109 40.943 90.2819 37.0113 79.5376 37.0113C55.7394 37.0113 36.4442 56.3064 36.4442 80.1047C36.4442 90.849 40.378 100.676 46.8813 108.223C37.7118 100.319 31.9067 88.6211 31.9067 75.5672C31.9067 51.7689 51.2019 32.4738 75.0001 32.4738C88.0519 32.4738 99.7523 38.2767 107.656 47.4484Z" fill="#E88102"/>
<path d="M97.1161 83.2199L96.738 83.4347C95.7497 79.6191 92.8837 77.6426 88.9327 76.6951C91.9685 75.1482 93.9493 72.5078 93.8376 68.2302H93.844V65.0828L93.4015 65.2267C91.8933 60.0576 86.5888 58.2013 80.0704 57.6299V48.3529H74.4243V57.3849C72.9397 57.3849 71.4229 57.415 69.9147 57.4451V48.3529H64.2708V57.6277C63.0462 57.6535 61.8452 57.675 60.6743 57.6771V57.6492L52.8862 57.647V63.6777C52.8862 63.6777 57.0585 63.5982 56.9876 63.6756C59.2757 63.6756 60.019 65.0033 60.236 66.1506V76.7187C60.395 76.7187 60.6013 76.7252 60.8333 76.7574C60.6442 76.7574 60.4444 76.7574 60.236 76.7574V91.5623C60.1351 92.282 59.7118 93.4293 58.1134 93.4336C58.1864 93.498 54.0077 93.4336 54.0077 93.4336L53.4813 96.5961L52.8862 96.7765V100.18H60.2339C61.6024 100.18 62.9474 100.203 64.2687 100.212V109.594H69.9126V100.311C71.4616 100.343 72.9591 100.356 74.4243 100.354V109.594H80.0683V100.229C89.5644 99.6834 96.2073 97.2922 97.0323 88.3783C97.0796 87.8777 97.1032 87.3986 97.1118 86.9345H97.1161V83.2285V83.2199ZM70.0479 64.0795C73.2362 64.0795 83.2479 63.0654 83.2501 69.7191C83.2501 76.0978 73.2362 75.3545 70.0479 75.3545V64.0795ZM70.0479 93.4765V81.0457C73.8765 81.0457 85.8776 79.9457 85.8776 87.259C85.8798 94.2715 73.8743 93.4722 70.0479 93.4765Z" fill="#DB6704"/>
<path d="M93.7731 63.7937C93.1307 57.1056 87.3579 54.8627 80.0682 54.2246V44.9476H74.4221V53.9797C72.9375 53.9797 71.4208 54.0097 69.9125 54.0398V44.9476H64.2686V54.2224C63.044 54.2482 61.843 54.2697 60.6721 54.2719V54.2439L52.884 54.2418V60.2724C52.884 60.2724 57.0563 60.1929 56.9854 60.2703C59.2735 60.2703 60.0168 61.598 60.2338 62.7453V73.3135C60.3928 73.3135 60.5991 73.3199 60.8311 73.3521C60.642 73.3521 60.4422 73.3521 60.2338 73.3521V88.157C60.1329 88.8767 59.7096 90.024 58.1112 90.0283C58.1842 90.0928 54.0055 90.0283 54.0055 90.0283L52.884 96.7722H60.2317C61.6002 96.7722 62.9452 96.7959 64.2665 96.8045V106.187H69.9104V96.9033C71.4594 96.9355 72.9569 96.9484 74.4221 96.9463V106.187H80.0661V96.8217C89.5622 96.276 96.2051 93.8847 97.0301 84.9709C97.6961 77.7929 94.3188 74.5896 88.9305 73.2963C92.2047 71.6291 94.2522 68.6922 93.7731 63.798V63.7937ZM85.8733 83.8558C85.8754 90.8683 73.87 90.0691 70.0436 90.0734V77.6426C73.8721 77.6426 85.8733 76.5426 85.8733 83.8558ZM83.2479 66.316C83.2479 72.6947 73.234 71.9513 70.0458 71.9513V60.6763C73.234 60.6763 83.2479 59.6623 83.2479 66.316Z" fill="#0A1011"/>
<path opacity="0.5" d="M76.5469 44.9476L74.4221 47.0746V44.9476H76.5469Z" fill="white"/>
<path opacity="0.5" d="M54.0098 90.0262C54.0098 90.0262 54.1086 90.0283 54.2783 90.0304L53.9561 90.3506L54.0098 90.0262Z" fill="white"/>
</g>
</g>
<defs>
<filter id="filter0_ddddd_396_933" x="2" y="17" width="146" height="194" filterUnits="userSpaceOnUse" color-interpolation-filters="sRGB">
<feFlood flood-opacity="0" result="BackgroundImageFix"/>
<feColorMatrix in="SourceAlpha" type="matrix" values="0 0 0 0 0 0 0 0 0 0 0 0 0 0 0 0 0 0 127 0" result="hardAlpha"/>
<feOffset dy="3"/>
<feGaussianBlur stdDeviation="3"/>
<feColorMatrix type="matrix" values="0 0 0 0 0 0 0 0 0 0 0 0 0 0 0 0 0 0 0.59 0"/>
<feBlend mode="normal" in2="BackgroundImageFix" result="effect1_dropShadow_396_933"/>
<feColorMatrix in="SourceAlpha" type="matrix" values="0 0 0 0 0 0 0 0 0 0 0 0 0 0 0 0 0 0 127 0" result="hardAlpha"/>
<feOffset dy="10"/>
<feGaussianBlur stdDeviation="5"/>
<feColorMatrix type="matrix" values="0 0 0 0 0 0 0 0 0 0 0 0 0 0 0 0 0 0 0.51 0"/>
<feBlend mode="normal" in2="effect1_dropShadow_396_933" result="effect2_dropShadow_396_933"/>
<feColorMatrix in="SourceAlpha" type="matrix" values="0 0 0 0 0 0 0 0 0 0 0 0 0 0 0 0 0 0 127 0" result="hardAlpha"/>
<feOffset dy="23"/>
<feGaussianBlur stdDeviation="7"/>
<feColorMatrix type="matrix" values="0 0 0 0 0 0 0 0 0 0 0 0 0 0 0 0 0 0 0.3 0"/>
<feBlend mode="normal" in2="effect2_dropShadow_396_933" result="effect3_dropShadow_396_933"/>
<feColorMatrix in="SourceAlpha" type="matrix" values="0 0 0 0 0 0 0 0 0 0 0 0 0 0 0 0 0 0 127 0" result="hardAlpha"/>
<feOffset dy="40"/>
<feGaussianBlur stdDeviation="8"/>
<feColorMatrix type="matrix" values="0 0 0 0 0 0 0 0 0 0 0 0 0 0 0 0 0 0 0.09 0"/>
<feBlend mode="normal" in2="effect3_dropShadow_396_933" result="effect4_dropShadow_396_933"/>
<feColorMatrix in="SourceAlpha" type="matrix" values="0 0 0 0 0 0 0 0 0 0 0 0 0 0 0 0 0 0 127 0" result="hardAlpha"/>
<feOffset dy="63"/>
<feGaussianBlur stdDeviation="9"/>
<feColorMatrix type="matrix" values="0 0 0 0 0 0 0 0 0 0 0 0 0 0 0 0 0 0 0.01 0"/>
<feBlend mode="normal" in2="effect4_dropShadow_396_933" result="effect5_dropShadow_396_933"/>
<feBlend mode="normal" in="SourceGraphic" in2="effect5_dropShadow_396_933" result="shape"/>
</filter>
<clipPath id="clip0_396_933">
<rect width="150" height="150" rx="75" fill="white"/>
</clipPath>
<clipPath id="clip1_396_933">
<rect width="110" height="110" fill="white" transform="translate(20 20)"/>
</clipPath>
</defs>
</svg>
