<svg width="150" height="150" viewBox="0 0 150 150" fill="none" xmlns="http://www.w3.org/2000/svg">
<g style="mix-blend-mode:luminosity">
<g clip-path="url(#clip0_1401_4868)">
<rect width="150" height="150" rx="75" fill="#1F1F23"/>
<g clip-path="url(#clip1_1401_4868)" filter="url(#filter0_ddddd_1401_4868)">
<path d="M75.124 130C105.5 130 130.124 105.376 130.124 75C130.124 44.6244 105.5 20 75.124 20C44.7484 20 20.124 44.6244 20.124 75C20.124 105.376 44.7484 130 75.124 130Z" fill="#FFD54F"/>
<path d="M75.124 119C99.4246 119 119.124 99.3006 119.124 75C119.124 50.6995 99.4246 31 75.124 31C50.8235 31 31.124 50.6995 31.124 75C31.124 99.3006 50.8235 119 75.124 119Z" fill="#F0A62D"/>
<path d="M75.124 116C97.7677 116 116.124 97.6437 116.124 75C116.124 52.3564 97.7677 34 75.124 34C52.4803 34 34.124 52.3564 34.124 75C34.124 97.6437 52.4803 116 75.124 116Z" fill="#FEC107"/>
<path d="M57.0293 76.0976L76.3457 42.2939L95.6621 76.0976L76.3457 88.1703L57.0293 76.0976Z" fill="#F0A62D"/>
<path d="M57.0293 80.9266L76.3457 109.901L95.6621 80.9266L76.3457 92.9994L57.0293 80.9266Z" fill="#F0A62D"/>
<path d="M55.9316 75L75.248 41.1963L94.5644 75L75.248 87.0728L55.9316 75Z" fill="#0E0E10"/>
<path d="M55.9316 79.8291L75.248 108.804L94.5644 79.8291L75.248 91.9019L55.9316 79.8291Z" fill="#0E0E10"/>
</g>
</g>
</g>
<defs>
<filter id="filter0_ddddd_1401_4868" x="4.12402" y="17" width="142" height="187" filterUnits="userSpaceOnUse" color-interpolation-filters="sRGB">
<feFlood flood-opacity="0" result="BackgroundImageFix"/>
<feColorMatrix in="SourceAlpha" type="matrix" values="0 0 0 0 0 0 0 0 0 0 0 0 0 0 0 0 0 0 127 0" result="hardAlpha"/>
<feOffset dy="2"/>
<feGaussianBlur stdDeviation="2.5"/>
<feColorMatrix type="matrix" values="0 0 0 0 0 0 0 0 0 0 0 0 0 0 0 0 0 0 0.59 0"/>
<feBlend mode="normal" in2="BackgroundImageFix" result="effect1_dropShadow_1401_4868"/>
<feColorMatrix in="SourceAlpha" type="matrix" values="0 0 0 0 0 0 0 0 0 0 0 0 0 0 0 0 0 0 127 0" result="hardAlpha"/>
<feOffset dy="9"/>
<feGaussianBlur stdDeviation="4.5"/>
<feColorMatrix type="matrix" values="0 0 0 0 0 0 0 0 0 0 0 0 0 0 0 0 0 0 0.51 0"/>
<feBlend mode="normal" in2="effect1_dropShadow_1401_4868" result="effect2_dropShadow_1401_4868"/>
<feColorMatrix in="SourceAlpha" type="matrix" values="0 0 0 0 0 0 0 0 0 0 0 0 0 0 0 0 0 0 127 0" result="hardAlpha"/>
<feOffset dy="21"/>
<feGaussianBlur stdDeviation="6.5"/>
<feColorMatrix type="matrix" values="0 0 0 0 0 0 0 0 0 0 0 0 0 0 0 0 0 0 0.3 0"/>
<feBlend mode="normal" in2="effect2_dropShadow_1401_4868" result="effect3_dropShadow_1401_4868"/>
<feColorMatrix in="SourceAlpha" type="matrix" values="0 0 0 0 0 0 0 0 0 0 0 0 0 0 0 0 0 0 127 0" result="hardAlpha"/>
<feOffset dy="37"/>
<feGaussianBlur stdDeviation="7.5"/>
<feColorMatrix type="matrix" values="0 0 0 0 0 0 0 0 0 0 0 0 0 0 0 0 0 0 0.09 0"/>
<feBlend mode="normal" in2="effect3_dropShadow_1401_4868" result="effect4_dropShadow_1401_4868"/>
<feColorMatrix in="SourceAlpha" type="matrix" values="0 0 0 0 0 0 0 0 0 0 0 0 0 0 0 0 0 0 127 0" result="hardAlpha"/>
<feOffset dy="58"/>
<feGaussianBlur stdDeviation="8"/>
<feColorMatrix type="matrix" values="0 0 0 0 0 0 0 0 0 0 0 0 0 0 0 0 0 0 0.01 0"/>
<feBlend mode="normal" in2="effect4_dropShadow_1401_4868" result="effect5_dropShadow_1401_4868"/>
<feBlend mode="normal" in="SourceGraphic" in2="effect5_dropShadow_1401_4868" result="shape"/>
</filter>
<clipPath id="clip0_1401_4868">
<rect width="150" height="150" rx="75" fill="white"/>
</clipPath>
<clipPath id="clip1_1401_4868">
<rect width="110" height="110" fill="white" transform="translate(20.124 20)"/>
</clipPath>
</defs>
</svg>
