<svg width="150" height="150" viewBox="0 0 150 150" fill="none" xmlns="http://www.w3.org/2000/svg">
<g style="mix-blend-mode:luminosity">
<g clip-path="url(#clip0_396_952)">
<rect width="150" height="150" rx="75" fill="#1F1F23"/>
<g clip-path="url(#clip1_396_952)" filter="url(#filter0_ddddd_396_952)">
<path d="M75.1238 130C105.499 130 130.124 105.376 130.124 75C130.124 44.6244 105.499 20 75.1238 20C44.7481 20 20.1238 44.6244 20.1238 75C20.1238 105.376 44.7481 130 75.1238 130Z" fill="#FFD54F"/>
<path d="M75.1238 119C99.4243 119 119.124 99.3006 119.124 75C119.124 50.6995 99.4243 31 75.1238 31C50.8232 31 31.1238 50.6995 31.1238 75C31.1238 99.3006 50.8232 119 75.1238 119Z" fill="#F0A62D"/>
<path d="M75.1238 116C97.7675 116 116.124 97.6437 116.124 75C116.124 52.3564 97.7675 34 75.1238 34C52.4801 34 34.1238 52.3564 34.1238 75C34.1238 97.6437 52.4801 116 75.1238 116Z" fill="#FEC107"/>
<path d="M57.0288 76.0976L76.3452 42.2939L95.6616 76.0976L76.3452 88.1703L57.0288 76.0976Z" fill="#F0A62D"/>
<path d="M57.0288 80.9266L76.3452 109.901L95.6616 80.9266L76.3452 92.9994L57.0288 80.9266Z" fill="#F0A62D"/>
<path d="M55.9314 75L75.2478 41.1963L94.5642 75L75.2478 87.0728L55.9314 75Z" fill="#0E0E10"/>
<path d="M55.9314 79.8291L75.2478 108.804L94.5642 79.8291L75.2478 91.9019L55.9314 79.8291Z" fill="#0E0E10"/>
</g>
</g>
</g>
<defs>
<filter id="filter0_ddddd_396_952" x="4.12402" y="17" width="142" height="187" filterUnits="userSpaceOnUse" color-interpolation-filters="sRGB">
<feFlood flood-opacity="0" result="BackgroundImageFix"/>
<feColorMatrix in="SourceAlpha" type="matrix" values="0 0 0 0 0 0 0 0 0 0 0 0 0 0 0 0 0 0 127 0" result="hardAlpha"/>
<feOffset dy="2"/>
<feGaussianBlur stdDeviation="2.5"/>
<feColorMatrix type="matrix" values="0 0 0 0 0 0 0 0 0 0 0 0 0 0 0 0 0 0 0.59 0"/>
<feBlend mode="normal" in2="BackgroundImageFix" result="effect1_dropShadow_396_952"/>
<feColorMatrix in="SourceAlpha" type="matrix" values="0 0 0 0 0 0 0 0 0 0 0 0 0 0 0 0 0 0 127 0" result="hardAlpha"/>
<feOffset dy="9"/>
<feGaussianBlur stdDeviation="4.5"/>
<feColorMatrix type="matrix" values="0 0 0 0 0 0 0 0 0 0 0 0 0 0 0 0 0 0 0.51 0"/>
<feBlend mode="normal" in2="effect1_dropShadow_396_952" result="effect2_dropShadow_396_952"/>
<feColorMatrix in="SourceAlpha" type="matrix" values="0 0 0 0 0 0 0 0 0 0 0 0 0 0 0 0 0 0 127 0" result="hardAlpha"/>
<feOffset dy="21"/>
<feGaussianBlur stdDeviation="6.5"/>
<feColorMatrix type="matrix" values="0 0 0 0 0 0 0 0 0 0 0 0 0 0 0 0 0 0 0.3 0"/>
<feBlend mode="normal" in2="effect2_dropShadow_396_952" result="effect3_dropShadow_396_952"/>
<feColorMatrix in="SourceAlpha" type="matrix" values="0 0 0 0 0 0 0 0 0 0 0 0 0 0 0 0 0 0 127 0" result="hardAlpha"/>
<feOffset dy="37"/>
<feGaussianBlur stdDeviation="7.5"/>
<feColorMatrix type="matrix" values="0 0 0 0 0 0 0 0 0 0 0 0 0 0 0 0 0 0 0.09 0"/>
<feBlend mode="normal" in2="effect3_dropShadow_396_952" result="effect4_dropShadow_396_952"/>
<feColorMatrix in="SourceAlpha" type="matrix" values="0 0 0 0 0 0 0 0 0 0 0 0 0 0 0 0 0 0 127 0" result="hardAlpha"/>
<feOffset dy="58"/>
<feGaussianBlur stdDeviation="8"/>
<feColorMatrix type="matrix" values="0 0 0 0 0 0 0 0 0 0 0 0 0 0 0 0 0 0 0.01 0"/>
<feBlend mode="normal" in2="effect4_dropShadow_396_952" result="effect5_dropShadow_396_952"/>
<feBlend mode="normal" in="SourceGraphic" in2="effect5_dropShadow_396_952" result="shape"/>
</filter>
<clipPath id="clip0_396_952">
<rect width="150" height="150" rx="75" fill="white"/>
</clipPath>
<clipPath id="clip1_396_952">
<rect width="110" height="110" fill="white" transform="translate(20.124 20)"/>
</clipPath>
</defs>
</svg>
