<svg width="1919" height="241" viewBox="0 0 1919 241" fill="none" xmlns="http://www.w3.org/2000/svg">
<path d="M-7.66476 245.083L92.819 109.237V129.194L-1.71276 0.000129789H28.0472L107.524 107.836L95.9701 108.186L175.447 0.000129789H203.456L109.975 127.443V109.237L210.108 245.083H179.998L95.2698 129.894H106.123L22.0952 245.083H-7.66476ZM300.08 245.083V22.4077H213.952V0.000129789H412.118V22.4077H325.989V245.083H300.08ZM460.511 245.083V0.000129789H552.242C573.015 0.000129789 590.871 3.38461 605.81 10.1536C620.748 16.6891 632.185 26.259 640.121 38.8632C648.291 51.234 652.375 66.2891 652.375 84.0284C652.375 101.301 648.291 116.239 640.121 128.843C632.185 141.214 620.748 150.784 605.81 157.553C590.871 164.089 573.015 167.356 552.242 167.356H474.866L486.42 155.452V245.083H460.511ZM627.867 245.083L564.846 156.153H592.855L656.227 245.083H627.867ZM486.42 157.553L474.866 145.299H551.542C576.05 145.299 594.606 139.931 607.21 129.194C620.048 118.457 626.467 103.402 626.467 84.0284C626.467 64.4218 620.048 49.25 607.21 38.5131C594.606 27.7761 576.05 22.4077 551.542 22.4077H474.866L486.42 10.1536V157.553ZM743.636 109.587H873.179V131.644H743.636V109.587ZM746.437 222.675H893.836V245.083H720.528V0.000129789H888.585V22.4077H746.437V222.675ZM922.527 245.083L1034.56 0.000129789H1060.12L1172.16 245.083H1144.85L1041.92 15.0552H1052.42L949.486 245.083H922.527ZM966.642 179.611L974.344 158.603H1116.84L1124.54 179.611H966.642ZM1219.71 245.083V0.000129789H1241.06L1353.1 191.164H1341.9L1452.88 0.000129789H1474.24V245.083H1449.38V38.8632H1455.33L1353.1 213.922H1340.85L1237.91 38.8632H1244.56V245.083H1219.71ZM1561.1 245.083V0.000129789H1587.01V222.675H1724.25V245.083H1561.1ZM1806.76 245.083V154.052L1812.71 170.157L1708.72 0.000129789H1736.38L1827.76 149.5H1813.06L1904.44 0.000129789H1930.35L1826.36 170.157L1832.32 154.052V245.083H1806.76Z" fill="url(#paint0_linear_396_146)"/>
<defs>
<linearGradient id="paint0_linear_396_146" x1="958.5" y1="-1.26255" x2="958.5" y2="245.463" gradientUnits="userSpaceOnUse">
<stop stop-color="#6AFFF5"/>
<stop offset="1" stop-color="#020C0C" stop-opacity="0"/>
</linearGradient>
</defs>
</svg>
